<svg id="Layer_1" data-name="Layer 1" xmlns="http://www.w3.org/2000/svg" viewBox="0 0 497.18 79.36"><defs><style>.cls-1{fill:#004a88;}.cls-2{fill:#ad1f2b;}.cls-3{fill:#4a1267;}</style></defs><title>Diebold Nixdorf Logo</title><path class="cls-1" d="M134,75c0-19.7-13.62-39.65-39.64-39.65v0H52.77V114.7H94.33v0c15.29,0,24.6-6.86,29.71-12.61A40.55,40.55,0,0,0,134,75v0Zm-24,14.53c-3.7,4.16-8.94,6.27-15.59,6.27v0H71.66V54.25H94.33v0c14.33,0,20.75,10.42,20.75,20.75A22,22,0,0,1,109.92,89.52Z" transform="translate(-52.77 -35.34)"/><path class="cls-2" d="M194.4,75c0-26-20-39.64-39.65-39.64S115.11,49,115.11,75h0V114.7H134V75h0c0-14.33,10.42-20.75,20.75-20.75a22,22,0,0,1,14.49,5.16c4.16,3.7,6.27,9,6.27,15.59h0V114.7h18.89V75Z" transform="translate(-52.77 -35.34)"/><path class="cls-3" d="M124.52,48.52c-5.74,6.5-9.41,15.38-9.41,26.54h0v34.36a36.6,36.6,0,0,0,9-7.33,40.54,40.54,0,0,0,9.93-27v0h0A41.08,41.08,0,0,0,124.52,48.52Z" transform="translate(-52.77 -35.34)"/><path class="cls-1" d="M234.85,96.12H223.2v-35h11.65c11,0,18.6,7.55,18.6,17.4v.1C253.45,88.47,245.85,96.12,234.85,96.12Zm15.9-17.5c0-8.3-6.15-15.1-15.9-15.1h-9v30.2h9c9.75,0,15.9-6.65,15.9-15Z" transform="translate(-52.77 -35.34)"/><path class="cls-1" d="M257.55,64V60.62h3.05V64Zm.3,32.15V70.62h2.45v25.5Z" transform="translate(-52.77 -35.34)"/><path class="cls-1" d="M276.55,94.42a11.45,11.45,0,0,0,8.75-4l1.7,1.5a13.4,13.4,0,0,1-10.55,4.8c-6.7,0-12.5-5.35-12.5-13.3v-.1c0-7.4,5.2-13.3,12.1-13.3,7.15,0,11.7,5.8,11.7,13.35v.1a5.74,5.74,0,0,1-.05.9H266.55C267,90.72,271.55,94.42,276.55,94.42Zm8.55-12.25c-.35-5.15-3.3-9.9-9.15-9.9-5.05,0-8.95,4.25-9.4,9.9Z" transform="translate(-52.77 -35.34)"/><path class="cls-1" d="M303.6,96.72c-5.1,0-8.4-2.9-10.5-6.1v5.5h-2.45V59.62h2.45v16.7c2.2-3.35,5.45-6.3,10.5-6.3,6.15,0,12.4,5,12.4,13.25v.1C316,91.67,309.75,96.72,303.6,96.72Zm9.75-13.35c0-6.7-4.65-11-10-11A10.68,10.68,0,0,0,293,83.32v.1a10.65,10.65,0,0,0,10.4,11c5.55,0,10-4.05,10-10.9Z" transform="translate(-52.77 -35.34)"/><path class="cls-1" d="M330.7,96.72a13,13,0,0,1-13.05-13.25v-.1A13.18,13.18,0,0,1,330.8,70a13,13,0,0,1,13.05,13.25v.1A13.18,13.18,0,0,1,330.7,96.72Zm10.5-13.35c0-6.15-4.6-11.05-10.5-11.05s-10.4,5-10.4,11v.1c0,6.15,4.6,11,10.5,11s10.4-5,10.4-11Z" transform="translate(-52.77 -35.34)"/><path class="cls-1" d="M347.5,96.12V59.62H350v36.5Z" transform="translate(-52.77 -35.34)"/><path class="cls-1" d="M376.6,96.12v-5.7c-2.2,3.35-5.45,6.3-10.5,6.3-6.15,0-12.4-5-12.4-13.25v-.1C353.7,75.07,360,70,366.1,70c5.1,0,8.4,2.9,10.5,6.1V59.62h2.45v36.5Zm.15-12.8a10.65,10.65,0,0,0-10.4-10.95c-5.55,0-10,4-10,10.9v.1c0,6.7,4.65,11,10,11a10.68,10.68,0,0,0,10.4-11Z" transform="translate(-52.77 -35.34)"/><path class="cls-1" d="M422.55,96.12,397.9,65v31.1h-2.5v-35h2.45L422,91.57V61.12h2.5v35Z" transform="translate(-52.77 -35.34)"/><path class="cls-1" d="M430.15,64V60.62h3.05V64Zm.3,32.15V70.62h2.45v25.5Z" transform="translate(-52.77 -35.34)"/><path class="cls-1" d="M456.85,96.12l-9-11.35-9,11.35h-3l10.45-13L436.3,70.62h3.05l8.6,10.8,8.6-10.8h2.95L449.45,83.07,459.9,96.12Z" transform="translate(-52.77 -35.34)"/><path class="cls-1" d="M482.3,96.12v-5.7c-2.2,3.35-5.45,6.3-10.5,6.3-6.15,0-12.4-5-12.4-13.25v-.1c0-8.3,6.25-13.35,12.4-13.35,5.1,0,8.4,2.9,10.5,6.1V59.62h2.45v36.5Zm.15-12.8a10.65,10.65,0,0,0-10.4-10.95c-5.55,0-10,4-10,10.9v.1c0,6.7,4.65,11,10,11a10.68,10.68,0,0,0,10.4-11Z" transform="translate(-52.77 -35.34)"/><path class="cls-1" d="M501.1,96.72a13,13,0,0,1-13.05-13.25v-.1A13.18,13.18,0,0,1,501.2,70a13,13,0,0,1,13.05,13.25v.1A13.18,13.18,0,0,1,501.1,96.72Zm10.5-13.35c0-6.15-4.6-11.05-10.5-11.05-6.05,0-10.4,5-10.4,11v.1c0,6.15,4.6,11,10.5,11,6.05,0,10.4-5,10.4-11Z" transform="translate(-52.77 -35.34)"/><path class="cls-1" d="M531.05,72.92c-5.9,0-11,4.45-11,12.75V96.12h-2.45V70.62H520v7.25c2-4.55,6.25-7.85,11.3-7.65v2.7Z" transform="translate(-52.77 -35.34)"/><path class="cls-1" d="M546.15,61.72c-3.5,0-5.15,2.1-5.15,6.45v2.45h8.9v2.25H541V96.12h-2.45V72.87h-3.7V70.62h3.7v-2.5c0-5.5,2.8-8.65,7.6-8.65a10.82,10.82,0,0,1,3.8.6v2.3A11.9,11.9,0,0,0,546.15,61.72Z" transform="translate(-52.77 -35.34)"/></svg>